<?xml version="1.0" encoding="UTF-8" standalone="no"?>
<svg
   xmlns:dc="http://purl.org/dc/elements/1.1/"
   xmlns:cc="http://creativecommons.org/ns#"
   xmlns:rdf="http://www.w3.org/1999/02/22-rdf-syntax-ns#"
   xmlns:svg="http://www.w3.org/2000/svg"
   xmlns="http://www.w3.org/2000/svg"
   xmlns:sodipodi="http://sodipodi.sourceforge.net/DTD/sodipodi-0.dtd"
   xmlns:inkscape="http://www.inkscape.org/namespaces/inkscape"
   version="1.1"
   width="256.0px"
   height="256.0px"
   overflow="visible"
   viewBox="0.0 0.0 256.0 256.0"
   enable-background="new 0.0 0.0 256.0 256.0"
   id="svg2"
   sodipodi:version="0.32"
   inkscape:version="0.46"
   sodipodi:docname="icon.svg"
   inkscape:output_extension="org.inkscape.output.svg.inkscape">
  <metadata
     id="metadata31">
    <rdf:RDF>
      <cc:Work
         rdf:about="">
        <dc:format>image/svg+xml</dc:format>
        <dc:type
           rdf:resource="http://purl.org/dc/dcmitype/StillImage" />
      </cc:Work>
    </rdf:RDF>
  </metadata>
  <sodipodi:namedview
     inkscape:window-height="739"
     inkscape:window-width="1280"
     inkscape:pageshadow="2"
     inkscape:pageopacity="0.0"
     guidetolerance="10.0"
     gridtolerance="10.0"
     objecttolerance="10.0"
     borderopacity="1.0"
     bordercolor="#666666"
     pagecolor="#ffffff"
     id="base"
     showgrid="false"
     inkscape:zoom="1.8203125"
     inkscape:cx="138.39769"
     inkscape:cy="126.03611"
     inkscape:window-x="-5"
     inkscape:window-y="-3"
     inkscape:current-layer="svg2" />
  <defs
     id="defs4">
    <inkscape:perspective
       sodipodi:type="inkscape:persp3d"
       inkscape:vp_x="0 : 128 : 1"
       inkscape:vp_y="0 : 1000 : 0"
       inkscape:vp_z="256 : 128 : 1"
       inkscape:persp3d-origin="128 : 85.333333 : 1"
       id="perspective33" />
    <radialGradient
       id="Grad1"
       gradientUnits="userSpaceOnUse"
       gradientTransform="matrix(3.0334473e-2,0,0,3.0334473e-2,24,19.95)"
       r="819.2"
       cx="0"
       cy="0">
      <stop
         offset="0.0"
         stop-color="#0066CC"
         id="stop7" />
      <stop
         offset="1.0"
         stop-color="#024586"
         id="stop9" />
    </radialGradient>
    <linearGradient
       id="Grad2"
       gradientUnits="userSpaceOnUse"
       gradientTransform="matrix(2.5909424e-2,0,0,1.9226074e-2,23.75,24.45)"
       x1="-819.2"
       y1="0"
       x2="819.2"
       y2="0">
      <stop
         offset="0.0"
         stop-color="#EEEEEE"
         id="stop12" />
      <stop
         offset="1.0"
         stop-color="#FFFFFF"
         id="stop14" />
    </linearGradient>
  </defs>
  <rect
     width="256.0px"
     height="256.0px"
     x="0px"
     y="0px"
     fill="#FFFFFF"
     id="rect16" />
  <g
     id="g18"
     transform="scale(5.2918455,5.2918455)">
    <g
       id="g20">
      <g
         id="g22">
        <path
           d="M 45,35.75 C 44.066666,37.316666 42.966667,38.8 41.7,40.2 L 40.95,40.95 C 36.216667,45.65 30.483334,48 23.75,48 C 17.349998,48 11.799998,45.65 7.1,40.95 L 6.4,40.2 C 5.1,38.8 3.9999998,37.316666 3.1,35.75 C 1.0333333,32.183334 0,28.183334 0,23.75 C 0,19.883333 0.8666667,16.333334 2.6,13.1 C 3.4,11.566667 4.4,10.099999 5.6,8.7 L 7.1,7.1 C 9.1,5.0666666 11.266667,3.483333 13.6,2.35 C 15.433333,1.4166666 17.366667,0.76666665 19.4,0.4 L 21.55,0.1 L 23.75,0 L 26.1,0.1 C 30,0.43333334 33.533333,1.6166668 36.7,3.65 L 36.8,3.7 C 38.266666,4.666667 39.65,5.8 40.95,7.1 L 42.45,8.7 C 43.61667,10.1 44.600002,11.566668 45.4,13.1 C 47.133335,16.433334 48,20.150002 48,24.25 C 48,28.45 47,32.283333 45,35.75 z"
           id="path24"
           style="fill:url(#Grad1);stroke-linecap:round;stroke-linejoin:round" />
      </g>
    </g>
    <g
       id="g26">
      <path
         d="M 45.4,13.1 L 19.45,13.1 L 18.7,16.65 L 36.8,16.65 L 34.5,35.75 L 45,35.75 C 44.100002,37.316666 43.01667,38.8 41.75,40.2 L 6.4,40.2 C 5.1,38.8 3.9999998,37.316666 3.1,35.75 L 29,35.75 L 29.55,31.2 L 15.5,31.2 L 15.1,32.45 L 9.85,32.45 L 14.1,13.1 L 2.6,13.1 C 3.4,11.566667 4.4,10.099999 5.6,8.7 L 42.45,8.7 C 43.61667,10.1 44.600002,11.566668 45.4,13.1 z M 36.8,16.65 L 36.8,16.7 L 36.8,16.65 z M 30.1,27 L 30.9,20.75 L 17.8,20.75 L 16.45,27 L 30.1,27 z"
         id="path28"
         style="fill:url(#Grad2);stroke-linecap:round;stroke-linejoin:round" />
    </g>
  </g>
</svg>
