<?xml version="1.0" encoding="UTF-8" standalone="no"?>
<!DOCTYPE svg PUBLIC "-//W3C//DTD SVG 1.1//EN"
	"http://www.w3.org/Graphics/SVG/1.1/DTD/svg11.dtd">
<svg
   xmlns="http://www.w3.org/2000/svg"
   width="48pt"
   height="48pt"
   viewBox="0 0 256 256"
   style="overflow:visible">
    <rect
   width="256"
   height="256"
   x="0"
   y="0"
   id="_x3C_Slice_x3E_"
   style="fill:none" />
    <path
   d="M 116.728,22.158 C 116.73,22.159 119.607,23.931 119.607,23.931 C 122.63,25.792 149.923,42.718 177.034,63.636 C 215.635,93.417 233.611,115.139 233.611,131.999 L 233.611,131.999 C 233.611,148.858 215.634,170.581 177.034,200.361 C 149.869,221.32 122.624,238.211 119.607,240.067 L 116.726,241.84 C 114.16,243.422 110.931,243.49 108.301,242.019 C 105.67,240.548 104.036,237.763 104.036,234.751 C 104.036,234.751 104.036,192.266 104.036,186.022 C 97.53,186.022 34.712,186.022 34.712,186.022 C 30.122,186.022 26.387,182.288 26.387,177.698 L 26.387,86.302 C 26.387,81.712 30.121,77.977 34.712,77.977 C 34.712,77.977 97.529,77.977 104.036,77.977 C 104.036,71.734 104.036,29.248 104.036,29.248 C 104.036,26.234 105.671,23.449 108.303,21.98 C 110.931,20.509 114.16,20.577 116.728,22.158 z"
   id="path657"
   style="opacity:0.2" />
    <path
   d="M 115.728,20.158 C 115.73,20.159 118.607,21.931 118.607,21.931 C 121.63,23.792 148.923,40.718 176.034,61.636 C 214.635,91.417 232.611,113.139 232.611,129.999 L 232.611,129.999 C 232.611,146.858 214.634,168.581 176.034,198.361 C 148.869,219.32 121.624,236.211 118.607,238.067 L 115.726,239.84 C 113.16,241.422 109.931,241.49 107.301,240.019 C 104.67,238.548 103.036,235.763 103.036,232.751 C 103.036,232.751 103.036,190.266 103.036,184.022 C 96.53,184.022 33.712,184.022 33.712,184.022 C 29.122,184.022 25.387,180.288 25.387,175.698 L 25.387,84.302 C 25.387,79.712 29.121,75.977 33.712,75.977 C 33.712,75.977 96.529,75.977 103.036,75.977 C 103.036,69.734 103.036,27.248 103.036,27.248 C 103.036,24.234 104.671,21.449 107.303,19.98 C 109.931,18.509 113.16,18.577 115.728,20.158 z"
   id="path658"
   style="opacity:0.2" />
    <linearGradient
   x1="83.459"
   y1="67.090302"
   x2="204.80161"
   y2="188.43291"
   id="XMLID_6_"
   gradientUnits="userSpaceOnUse"
   gradientTransform="matrix(-1,0,0,1,256,0)">
      <stop
   style="stop-color:#0066cc;stop-opacity:1"
   offset="0" />
      <stop
   style="stop-color:#003399;stop-opacity:1"
   offset="1" />
    </linearGradient>
    <path
   d="M 114.728,18.158 C 114.73,18.159 117.607,19.931 117.607,19.931 C 120.63,21.792 147.923,38.718 175.034,59.636 C 213.635,89.417 231.611,111.139 231.611,127.999 L 231.611,127.999 C 231.611,144.858 213.634,166.581 175.034,196.361 C 147.869,217.32 120.624,234.211 117.607,236.067 L 114.726,237.84 C 112.16,239.422 108.931,239.49 106.301,238.019 C 103.67,236.548 102.036,233.763 102.036,230.751 C 102.036,230.751 102.036,188.266 102.036,182.022 C 95.53,182.022 32.712,182.022 32.712,182.022 C 28.122,182.022 24.387,178.288 24.387,173.698 L 24.387,82.302 C 24.387,77.712 28.121,73.977 32.712,73.977 C 32.712,73.977 95.529,73.977 102.036,73.977 C 102.036,67.734 102.036,25.248 102.036,25.248 C 102.036,22.234 103.671,19.449 106.303,17.98 C 108.931,16.509 112.16,16.577 114.728,18.158 z"
   style="fill:url(#XMLID_6_)" />
    <linearGradient
   x1="83.477501"
   y1="67.087402"
   x2="204.8054"
   y2="188.4153"
   id="XMLID_7_"
   gradientUnits="userSpaceOnUse"
   gradientTransform="matrix(-1,0,0,1,256,0)">
      <stop
   style="stop-color:#0066cc;stop-opacity:1"
   offset="0" />
      <stop
   style="stop-color:#003399;stop-opacity:1"
   offset="1" />
    </linearGradient>
    <path
   d="M 112.839,21.224 L 115.72,22.997 L 115.72,22.997 C 118.724,24.847 145.858,41.673 172.836,62.487 C 209.964,91.132 228.012,112.562 228.012,128 C 228.012,143.438 209.964,164.866 172.836,193.512 C 145.874,214.314 118.728,231.153 115.72,233.003 L 112.839,234.776 C 111.381,235.674 109.551,235.714 108.058,234.879 C 106.563,234.043 105.637,232.465 105.637,230.753 C 105.637,230.753 105.637,186.373 105.637,178.424 C 97.303,178.424 32.713,178.424 32.713,178.424 C 30.104,178.424 27.988,176.309 27.988,173.699 L 27.988,82.302 C 27.988,79.693 30.104,77.577 32.713,77.577 C 32.713,77.577 97.302,77.577 105.637,77.577 C 105.637,69.628 105.637,25.247 105.637,25.247 C 105.637,23.535 106.563,21.957 108.058,21.122 C 109.551,20.287 111.382,20.326 112.839,21.224 z" style="fill:url(#XMLID_7_)" />
    <linearGradient
   x1="83.397903"
   y1="66.984398"
   x2="204.80679"
   y2="188.3932"
   id="XMLID_8_"
   gradientUnits="userSpaceOnUse"
   gradientTransform="matrix(-1,0,0,1,256,0)">
      <stop
   style="stop-color:#ffffff;stop-opacity:1"
   offset="0" />
      <stop
   style="stop-color:#f0f0f0;stop-opacity:1"
   offset="1" />
    </linearGradient>
    <path
   d="M 113.242,27.021 C 117.736,29.787 223.286,95.148 223.286,128 C 223.286,160.852 117.736,226.213 113.242,228.979 L 110.361,230.752 C 110.361,230.752 110.361,177.225 110.361,173.698 C 106.763,173.698 32.712,173.698 32.712,173.698 L 32.712,82.302 C 32.712,82.302 106.763,82.302 110.361,82.302 C 110.361,78.775 110.361,25.247 110.361,25.247 L 113.242,27.021 z" 
   style="fill:url(#XMLID_8_)" />
    <linearGradient
   x1="82.5718"
   y1="67.966797"
   x2="203.9104"
   y2="189.3054"
   id="XMLID_9_"
   gradientUnits="userSpaceOnUse"
   gradientTransform="matrix(-1,0,0,1,256,0)">
      <stop
   style="stop-color:#ffffff;stop-opacity:1"
   offset="0" />
      <stop
   style="stop-color:#dfdfdf;stop-opacity:1"
   offset="1" />
    </linearGradient>
    <path
   d="M 216.986,128 C 216.986,148.505 158.054,193.1 116.661,219.402 C 116.661,204.837 116.661,167.398 116.661,167.398 C 116.661,167.398 49.651,167.398 39.013,167.398 C 39.013,157.284 39.013,98.715 39.013,88.601 C 49.651,88.601 116.661,88.601 116.661,88.601 C 116.661,88.601 116.661,51.162 116.661,36.596 C 158.055,62.896 216.986,107.488 216.986,128 z" 
   style="fill:url(#XMLID_9_)" />
    <linearGradient
   x1="102.7583"
   y1="92.283699"
   x2="195.3558"
   y2="184.8815"
   id="XMLID_10_"
   gradientUnits="userSpaceOnUse"
   gradientTransform="matrix(-1,0,0,1,256,0)">
      <stop
   style="stop-color:#428aff;stop-opacity:1"
   offset="0" />
      <stop
   style="stop-color:#003399;stop-opacity:1"
   offset="1" />
    </linearGradient>
    <path
   d="M 155.735,80.997 L 155.735,80.997 C 195.381,111.262 201.876,125.278 202.825,128.002 C 201.875,130.728 195.37,144.745 155.735,175.002 C 148.104,180.828 139.693,186.905 130.702,193.112 C 130.702,182.05 130.702,153.359 130.702,153.359 C 130.702,153.359 61.04,153.359 53.053,153.359 C 53.053,146.292 53.053,109.709 53.053,102.641 C 61.04,102.641 130.702,102.641 130.702,102.641 C 130.702,102.641 130.702,73.949 130.702,62.887 C 139.687,69.09 148.099,75.167 155.735,80.997 z"
   style="fill:url(#XMLID_10_)" />
</svg>